<svg width="161" height="52" viewBox="0 0 161 52" fill="none" xmlns="http://www.w3.org/2000/svg">
<path d="M0 17.3333C0 7.7604 7.7604 0 17.3333 0H126.333C145.479 0 161 15.5208 161 34.6667C161 44.2396 153.24 52 143.667 52H34.6667C15.5208 52 0 36.4792 0 17.3333Z" fill="#22252A"/>
<path d="M71.824 29.52H66.96L66.064 32H64.528L68.56 20.912H70.24L74.256 32H72.72L71.824 29.52ZM71.408 28.336L69.392 22.704L67.376 28.336H71.408ZM75.4693 27.584C75.4693 26.688 75.6506 25.904 76.0133 25.232C76.3759 24.5493 76.8719 24.0213 77.5013 23.648C78.1413 23.2747 78.8559 23.088 79.6453 23.088C80.3279 23.088 80.9626 23.248 81.5493 23.568C82.1359 23.8773 82.5839 24.288 82.8933 24.8V20.16H84.3653V32H82.8933V30.352C82.6053 30.8747 82.1786 31.3067 81.6133 31.648C81.0479 31.9787 80.3866 32.144 79.6293 32.144C78.8506 32.144 78.1413 31.952 77.5013 31.568C76.8719 31.184 76.3759 30.6453 76.0133 29.952C75.6506 29.2587 75.4693 28.4693 75.4693 27.584ZM82.8933 27.6C82.8933 26.9387 82.7599 26.3627 82.4933 25.872C82.2266 25.3813 81.8639 25.008 81.4053 24.752C80.9573 24.4853 80.4613 24.352 79.9173 24.352C79.3733 24.352 78.8773 24.48 78.4293 24.736C77.9813 24.992 77.6239 25.3653 77.3573 25.856C77.0906 26.3467 76.9573 26.9227 76.9573 27.584C76.9573 28.256 77.0906 28.8427 77.3573 29.344C77.6239 29.8347 77.9813 30.2133 78.4293 30.48C78.8773 30.736 79.3733 30.864 79.9173 30.864C80.4613 30.864 80.9573 30.736 81.4053 30.48C81.8639 30.2133 82.2266 29.8347 82.4933 29.344C82.7599 28.8427 82.8933 28.2613 82.8933 27.6ZM86.2818 27.584C86.2818 26.688 86.4631 25.904 86.8258 25.232C87.1884 24.5493 87.6844 24.0213 88.3138 23.648C88.9538 23.2747 89.6684 23.088 90.4578 23.088C91.1404 23.088 91.7751 23.248 92.3618 23.568C92.9484 23.8773 93.3964 24.288 93.7058 24.8V20.16H95.1778V32H93.7058V30.352C93.4178 30.8747 92.9911 31.3067 92.4258 31.648C91.8604 31.9787 91.1991 32.144 90.4418 32.144C89.6631 32.144 88.9538 31.952 88.3138 31.568C87.6844 31.184 87.1884 30.6453 86.8258 29.952C86.4631 29.2587 86.2818 28.4693 86.2818 27.584ZM93.7058 27.6C93.7058 26.9387 93.5724 26.3627 93.3058 25.872C93.0391 25.3813 92.6764 25.008 92.2178 24.752C91.7698 24.4853 91.2738 24.352 90.7298 24.352C90.1858 24.352 89.6898 24.48 89.2418 24.736C88.7938 24.992 88.4364 25.3653 88.1698 25.856C87.9031 26.3467 87.7698 26.9227 87.7698 27.584C87.7698 28.256 87.9031 28.8427 88.1698 29.344C88.4364 29.8347 88.7938 30.2133 89.2418 30.48C89.6898 30.736 90.1858 30.864 90.7298 30.864C91.2738 30.864 91.7698 30.736 92.2178 30.48C92.6764 30.2133 93.0391 29.8347 93.3058 29.344C93.5724 28.8427 93.7058 28.2613 93.7058 27.6Z" fill="#FAFAFA"/>
</svg>
