<svg width="169" height="92" viewBox="0 0 169 92" fill="none" xmlns="http://www.w3.org/2000/svg">
<g clip-path="url(#clip0_3_944)">
<path d="M147.154 62.6772C147.153 62.6775 147.153 62.6778 147.153 62.6782L141.349 70.9286C141.283 71.0234 141.242 71.1341 141.232 71.2495C141.222 71.3648 141.243 71.4808 141.292 71.5857L145.463 80.4572C145.838 81.2819 147.036 81.2156 147.316 80.3539L155.511 55.0948C155.568 54.9199 155.574 54.7327 155.53 54.5542C155.486 54.3757 155.393 54.213 155.261 54.0843C155.129 53.9556 154.964 53.8659 154.784 53.8254C154.604 53.7849 154.416 53.7952 154.241 53.8551L129.017 62.4865C128.156 62.7809 128.113 63.9751 128.948 64.3319L137.942 68.3128C138.048 68.3601 138.165 68.3787 138.281 68.3666C138.397 68.3545 138.508 68.3123 138.602 68.2441L146.781 62.3128C146.832 62.2766 146.894 62.2594 146.956 62.2642C147.018 62.269 147.077 62.2955 147.121 62.339C147.166 62.3824 147.194 62.4401 147.2 62.5019C147.205 62.5635 147.19 62.6251 147.154 62.6762C147.154 62.6765 147.154 62.6769 147.154 62.6772V62.6772Z" fill="#8BAA36"/>
</g>
<path d="M1.86681 0.868485C15.1348 20.7449 42.8917 82.5886 71.2738 57.2663C106.752 25.6135 41.8676 4.53951 34.9269 38.7478C27.9862 72.956 81.3591 114.597 138.559 72.0882" stroke="#8BAA36" stroke-width="3" stroke-linejoin="round" stroke-dasharray="8 8"/>
<defs>
<clipPath id="clip0_3_944">
<rect width="31.7311" height="31.7349" fill="white" transform="matrix(0.702142 -0.712037 0.7155 0.698613 123.717 63.4745)"/>
</clipPath>
</defs>
</svg>
