<svg width="77" height="19" viewBox="0 0 77 19" fill="none" xmlns="http://www.w3.org/2000/svg">
<path d="M5.352 13.964H8.768V15H4.078V5.242H5.352V13.964ZM13.467 15.126C12.7483 15.126 12.095 14.9627 11.507 14.636C10.9283 14.3093 10.471 13.8473 10.135 13.25C9.8083 12.6433 9.64497 11.9433 9.64497 11.15C9.64497 10.366 9.81297 9.67533 10.149 9.078C10.4943 8.47133 10.961 8.00933 11.549 7.692C12.137 7.36533 12.795 7.202 13.523 7.202C14.251 7.202 14.909 7.36533 15.497 7.692C16.085 8.00933 16.547 8.46667 16.883 9.064C17.2283 9.66133 17.401 10.3567 17.401 11.15C17.401 11.9433 17.2236 12.6433 16.869 13.25C16.5236 13.8473 16.0523 14.3093 15.455 14.636C14.8576 14.9627 14.195 15.126 13.467 15.126ZM13.467 14.006C13.9243 14.006 14.3536 13.8987 14.755 13.684C15.1563 13.4693 15.4783 13.1473 15.721 12.718C15.973 12.2887 16.099 11.766 16.099 11.15C16.099 10.534 15.9776 10.0113 15.735 9.582C15.4923 9.15267 15.175 8.83533 14.783 8.63C14.391 8.41533 13.9663 8.308 13.509 8.308C13.0423 8.308 12.613 8.41533 12.221 8.63C11.8383 8.83533 11.5303 9.15267 11.297 9.582C11.0636 10.0113 10.947 10.534 10.947 11.15C10.947 11.7753 11.059 12.3027 11.283 12.732C11.5163 13.1613 11.8243 13.4833 12.207 13.698C12.5896 13.9033 13.0096 14.006 13.467 14.006ZM22.24 7.202C22.9027 7.202 23.4814 7.34667 23.976 7.636C24.48 7.92533 24.8534 8.28933 25.096 8.728V7.328H26.384V15.168C26.384 15.868 26.2347 16.4887 25.936 17.03C25.6374 17.5807 25.208 18.01 24.648 18.318C24.0974 18.626 23.4534 18.78 22.716 18.78C21.708 18.78 20.868 18.542 20.196 18.066C19.524 17.59 19.1274 16.9413 19.006 16.12H20.266C20.406 16.5867 20.6954 16.96 21.134 17.24C21.5727 17.5293 22.1 17.674 22.716 17.674C23.416 17.674 23.9854 17.4547 24.424 17.016C24.872 16.5773 25.096 15.9613 25.096 15.168V13.558C24.844 14.006 24.4707 14.3793 23.976 14.678C23.4814 14.9767 22.9027 15.126 22.24 15.126C21.5587 15.126 20.938 14.958 20.378 14.622C19.8274 14.286 19.3934 13.8147 19.076 13.208C18.7587 12.6013 18.6 11.9107 18.6 11.136C18.6 10.352 18.7587 9.666 19.076 9.078C19.3934 8.48067 19.8274 8.01867 20.378 7.692C20.938 7.36533 21.5587 7.202 22.24 7.202ZM25.096 11.15C25.096 10.5713 24.9794 10.0673 24.746 9.638C24.5127 9.20867 24.1954 8.882 23.794 8.658C23.402 8.42467 22.968 8.308 22.492 8.308C22.016 8.308 21.582 8.42 21.19 8.644C20.798 8.868 20.4854 9.19467 20.252 9.624C20.0187 10.0533 19.902 10.5573 19.902 11.136C19.902 11.724 20.0187 12.2373 20.252 12.676C20.4854 13.1053 20.798 13.4367 21.19 13.67C21.582 13.894 22.016 14.006 22.492 14.006C22.968 14.006 23.402 13.894 23.794 13.67C24.1954 13.4367 24.5127 13.1053 24.746 12.676C24.9794 12.2373 25.096 11.7287 25.096 11.15ZM35.6154 15.126C34.8967 15.126 34.2434 14.9627 33.6554 14.636C33.0767 14.3093 32.6194 13.8473 32.2834 13.25C31.9567 12.6433 31.7934 11.9433 31.7934 11.15C31.7934 10.366 31.9614 9.67533 32.2974 9.078C32.6427 8.47133 33.1094 8.00933 33.6974 7.692C34.2854 7.36533 34.9434 7.202 35.6714 7.202C36.3994 7.202 37.0574 7.36533 37.6454 7.692C38.2334 8.00933 38.6954 8.46667 39.0314 9.064C39.3767 9.66133 39.5494 10.3567 39.5494 11.15C39.5494 11.9433 39.3721 12.6433 39.0174 13.25C38.6721 13.8473 38.2007 14.3093 37.6034 14.636C37.0061 14.9627 36.3434 15.126 35.6154 15.126ZM35.6154 14.006C36.0727 14.006 36.5021 13.8987 36.9034 13.684C37.3047 13.4693 37.6267 13.1473 37.8694 12.718C38.1214 12.2887 38.2474 11.766 38.2474 11.15C38.2474 10.534 38.1261 10.0113 37.8834 9.582C37.6407 9.15267 37.3234 8.83533 36.9314 8.63C36.5394 8.41533 36.1147 8.308 35.6574 8.308C35.1907 8.308 34.7614 8.41533 34.3694 8.63C33.9867 8.83533 33.6787 9.15267 33.4454 9.582C33.2121 10.0113 33.0954 10.534 33.0954 11.15C33.0954 11.7753 33.2074 12.3027 33.4314 12.732C33.6647 13.1613 33.9727 13.4833 34.3554 13.698C34.7381 13.9033 35.1581 14.006 35.6154 14.006ZM48.0285 7.328V15H46.7545V13.866C46.5118 14.258 46.1712 14.566 45.7325 14.79C45.3032 15.0047 44.8272 15.112 44.3045 15.112C43.7072 15.112 43.1705 14.9907 42.6945 14.748C42.2185 14.496 41.8405 14.1227 41.5605 13.628C41.2898 13.1333 41.1545 12.5313 41.1545 11.822V7.328H42.4145V11.654C42.4145 12.41 42.6058 12.9933 42.9885 13.404C43.3712 13.8053 43.8938 14.006 44.5565 14.006C45.2378 14.006 45.7745 13.796 46.1665 13.376C46.5585 12.956 46.7545 12.3447 46.7545 11.542V7.328H48.0285ZM51.7336 8.378V12.9C51.7336 13.2733 51.8129 13.5393 51.9716 13.698C52.1302 13.8473 52.4056 13.922 52.7976 13.922H53.7356V15H52.5876C51.8782 15 51.3462 14.8367 50.9916 14.51C50.6369 14.1833 50.4596 13.6467 50.4596 12.9V8.378H49.4656V7.328H50.4596V5.396H51.7336V7.328H53.7356V8.378H51.7336Z" fill="#FAFAFA"/>
<path d="M61.75 9.5H71.75" stroke="#FAFAFA" stroke-width="1.3" stroke-linecap="round" stroke-linejoin="round"/>
<path d="M68 4.25L73.25 9.5L68 14.75" stroke="#FAFAFA" stroke-width="1.3" stroke-linecap="round" stroke-linejoin="round"/>
</svg>
