<svg width="14" height="13" viewBox="0 0 14 13" fill="none" xmlns="http://www.w3.org/2000/svg">
<path d="M1.62571 10.5323C1.67166 10.1188 1.69463 9.91207 1.75719 9.71883C1.81269 9.54739 1.89111 9.38423 1.99031 9.23379C2.10213 9.06422 2.24922 8.91713 2.5434 8.62295L9.91636 1.25001C10.5607 0.605676 11.6054 0.605677 12.2497 1.25001V1.25001C12.894 1.89434 12.894 2.93901 12.2497 3.58334L4.87673 10.9563C4.58255 11.2505 4.43546 11.3976 4.26589 11.5094C4.11546 11.6086 3.9523 11.687 3.78085 11.7425C3.58761 11.8051 3.38087 11.828 2.96738 11.874L1.45801 12.0417L1.62571 10.5323Z" stroke="#23262A" stroke-width="1.3" stroke-linecap="round" stroke-linejoin="round"/>
</svg>
