<svg width="270" height="59" viewBox="0 0 270 59" fill="none" xmlns="http://www.w3.org/2000/svg">
<path d="M1 19.6667C1 9.35735 9.35735 1 19.6667 1H230.667C251.838 1 269 18.1624 269 39.3333C269 49.6426 260.643 58 250.333 58H39.3333C18.1624 58 1 40.8376 1 19.6667Z" stroke="#8BAA36" stroke-width="2"/>
<path d="M51.824 33.52H46.96L46.064 36H44.528L48.56 24.912H50.24L54.256 36H52.72L51.824 33.52ZM51.408 32.336L49.392 26.704L47.376 32.336H51.408ZM55.4693 31.584C55.4693 30.688 55.6506 29.904 56.0133 29.232C56.3759 28.5493 56.8719 28.0213 57.5013 27.648C58.1413 27.2747 58.8559 27.088 59.6453 27.088C60.3279 27.088 60.9626 27.248 61.5493 27.568C62.1359 27.8773 62.5839 28.288 62.8933 28.8V24.16H64.3653V36H62.8933V34.352C62.6053 34.8747 62.1786 35.3067 61.6133 35.648C61.0479 35.9787 60.3866 36.144 59.6293 36.144C58.8506 36.144 58.1413 35.952 57.5013 35.568C56.8719 35.184 56.3759 34.6453 56.0133 33.952C55.6506 33.2587 55.4693 32.4693 55.4693 31.584ZM62.8933 31.6C62.8933 30.9387 62.7599 30.3627 62.4933 29.872C62.2266 29.3813 61.8639 29.008 61.4053 28.752C60.9573 28.4853 60.4613 28.352 59.9173 28.352C59.3733 28.352 58.8773 28.48 58.4293 28.736C57.9813 28.992 57.6239 29.3653 57.3573 29.856C57.0906 30.3467 56.9573 30.9227 56.9573 31.584C56.9573 32.256 57.0906 32.8427 57.3573 33.344C57.6239 33.8347 57.9813 34.2133 58.4293 34.48C58.8773 34.736 59.3733 34.864 59.9173 34.864C60.4613 34.864 60.9573 34.736 61.4053 34.48C61.8639 34.2133 62.2266 33.8347 62.4933 33.344C62.7599 32.8427 62.8933 32.2613 62.8933 31.6ZM66.2818 31.584C66.2818 30.688 66.4631 29.904 66.8258 29.232C67.1884 28.5493 67.6844 28.0213 68.3138 27.648C68.9538 27.2747 69.6684 27.088 70.4578 27.088C71.1404 27.088 71.7751 27.248 72.3618 27.568C72.9484 27.8773 73.3964 28.288 73.7058 28.8V24.16H75.1778V36H73.7058V34.352C73.4178 34.8747 72.9911 35.3067 72.4258 35.648C71.8604 35.9787 71.1991 36.144 70.4418 36.144C69.6631 36.144 68.9538 35.952 68.3138 35.568C67.6844 35.184 67.1884 34.6453 66.8258 33.952C66.4631 33.2587 66.2818 32.4693 66.2818 31.584ZM73.7058 31.6C73.7058 30.9387 73.5724 30.3627 73.3058 29.872C73.0391 29.3813 72.6764 29.008 72.2178 28.752C71.7698 28.4853 71.2738 28.352 70.7298 28.352C70.1858 28.352 69.6898 28.48 69.2418 28.736C68.7938 28.992 68.4364 29.3653 68.1698 29.856C67.9031 30.3467 67.7698 30.9227 67.7698 31.584C67.7698 32.256 67.9031 32.8427 68.1698 33.344C68.4364 33.8347 68.7938 34.2133 69.2418 34.48C69.6898 34.736 70.1858 34.864 70.7298 34.864C71.2738 34.864 71.7698 34.736 72.2178 34.48C72.6764 34.2133 73.0391 33.8347 73.3058 33.344C73.5724 32.8427 73.7058 32.2613 73.7058 31.6ZM83.6799 28.432V33.6C83.6799 34.0267 83.7705 34.3307 83.9519 34.512C84.1332 34.6827 84.4479 34.768 84.8959 34.768H85.9679V36H84.6559C83.8452 36 83.2372 35.8133 82.8319 35.44C82.4265 35.0667 82.2239 34.4533 82.2239 33.6V28.432H81.0879V27.232H82.2239V25.024H83.6799V27.232H85.9679V28.432H83.6799ZM91.556 36.144C90.7347 36.144 89.988 35.9573 89.316 35.584C88.6547 35.2107 88.132 34.6827 87.748 34C87.3747 33.3067 87.188 32.5067 87.188 31.6C87.188 30.704 87.38 29.9147 87.764 29.232C88.1587 28.5387 88.692 28.0107 89.364 27.648C90.036 27.2747 90.788 27.088 91.62 27.088C92.452 27.088 93.204 27.2747 93.876 27.648C94.548 28.0107 95.076 28.5333 95.46 29.216C95.8547 29.8987 96.052 30.6933 96.052 31.6C96.052 32.5067 95.8493 33.3067 95.444 34C95.0493 34.6827 94.5107 35.2107 93.828 35.584C93.1453 35.9573 92.388 36.144 91.556 36.144ZM91.556 34.864C92.0787 34.864 92.5693 34.7413 93.028 34.496C93.4867 34.2507 93.8547 33.8827 94.132 33.392C94.42 32.9013 94.564 32.304 94.564 31.6C94.564 30.896 94.4253 30.2987 94.148 29.808C93.8707 29.3173 93.508 28.9547 93.06 28.72C92.612 28.4747 92.1267 28.352 91.604 28.352C91.0707 28.352 90.58 28.4747 90.132 28.72C89.6947 28.9547 89.3427 29.3173 89.076 29.808C88.8093 30.2987 88.676 30.896 88.676 31.6C88.676 32.3147 88.804 32.9173 89.06 33.408C89.3267 33.8987 89.6787 34.2667 90.116 34.512C90.5533 34.7467 91.0333 34.864 91.556 34.864ZM105.8 28.432H103.96V36H102.504V28.432H101.368V27.232H102.504V26.608C102.504 25.6267 102.755 24.912 103.256 24.464C103.768 24.0053 104.584 23.776 105.704 23.776V24.992C105.064 24.992 104.611 25.12 104.344 25.376C104.088 25.6213 103.96 26.032 103.96 26.608V27.232H105.8V28.432ZM106.954 31.584C106.954 30.688 107.135 29.904 107.498 29.232C107.86 28.5493 108.356 28.0213 108.986 27.648C109.626 27.2747 110.335 27.088 111.114 27.088C111.882 27.088 112.548 27.2533 113.114 27.584C113.679 27.9147 114.1 28.3307 114.378 28.832V27.232H115.85V36H114.378V34.368C114.09 34.88 113.658 35.3067 113.082 35.648C112.516 35.9787 111.855 36.144 111.098 36.144C110.319 36.144 109.615 35.952 108.986 35.568C108.356 35.184 107.86 34.6453 107.498 33.952C107.135 33.2587 106.954 32.4693 106.954 31.584ZM114.378 31.6C114.378 30.9387 114.244 30.3627 113.978 29.872C113.711 29.3813 113.348 29.008 112.89 28.752C112.442 28.4853 111.946 28.352 111.402 28.352C110.858 28.352 110.362 28.48 109.914 28.736C109.466 28.992 109.108 29.3653 108.842 29.856C108.575 30.3467 108.442 30.9227 108.442 31.584C108.442 32.256 108.575 32.8427 108.842 33.344C109.108 33.8347 109.466 34.2133 109.914 34.48C110.362 34.736 110.858 34.864 111.402 34.864C111.946 34.864 112.442 34.736 112.89 34.48C113.348 34.2133 113.711 33.8347 113.978 33.344C114.244 32.8427 114.378 32.2613 114.378 31.6ZM121.574 34.656L124.294 27.232H125.846L122.406 36H120.71L117.27 27.232H118.838L121.574 34.656ZM131.103 36.144C130.282 36.144 129.535 35.9573 128.863 35.584C128.202 35.2107 127.679 34.6827 127.295 34C126.922 33.3067 126.735 32.5067 126.735 31.6C126.735 30.704 126.927 29.9147 127.311 29.232C127.706 28.5387 128.239 28.0107 128.911 27.648C129.583 27.2747 130.335 27.088 131.167 27.088C131.999 27.088 132.751 27.2747 133.423 27.648C134.095 28.0107 134.623 28.5333 135.007 29.216C135.402 29.8987 135.599 30.6933 135.599 31.6C135.599 32.5067 135.396 33.3067 134.991 34C134.596 34.6827 134.058 35.2107 133.375 35.584C132.692 35.9573 131.935 36.144 131.103 36.144ZM131.103 34.864C131.626 34.864 132.116 34.7413 132.575 34.496C133.034 34.2507 133.402 33.8827 133.679 33.392C133.967 32.9013 134.111 32.304 134.111 31.6C134.111 30.896 133.972 30.2987 133.695 29.808C133.418 29.3173 133.055 28.9547 132.607 28.72C132.159 28.4747 131.674 28.352 131.151 28.352C130.618 28.352 130.127 28.4747 129.679 28.72C129.242 28.9547 128.89 29.3173 128.623 29.808C128.356 30.2987 128.223 30.896 128.223 31.6C128.223 32.3147 128.351 32.9173 128.607 33.408C128.874 33.8987 129.226 34.2667 129.663 34.512C130.1 34.7467 130.58 34.864 131.103 34.864ZM138.969 28.656C139.225 28.1547 139.588 27.7653 140.057 27.488C140.537 27.2107 141.119 27.072 141.801 27.072V28.576H141.417C139.785 28.576 138.969 29.4613 138.969 31.232V36H137.513V27.232H138.969V28.656ZM144.234 25.808C143.957 25.808 143.722 25.712 143.53 25.52C143.338 25.328 143.242 25.0933 143.242 24.816C143.242 24.5387 143.338 24.304 143.53 24.112C143.722 23.92 143.957 23.824 144.234 23.824C144.501 23.824 144.725 23.92 144.906 24.112C145.098 24.304 145.194 24.5387 145.194 24.816C145.194 25.0933 145.098 25.328 144.906 25.52C144.725 25.712 144.501 25.808 144.234 25.808ZM144.938 27.232V36H143.482V27.232H144.938ZM149.196 28.432V33.6C149.196 34.0267 149.286 34.3307 149.468 34.512C149.649 34.6827 149.964 34.768 150.411 34.768H151.484V36H150.172C149.361 36 148.753 35.8133 148.348 35.44C147.942 35.0667 147.74 34.4533 147.74 33.6V28.432H146.604V27.232H147.74V25.024H149.196V27.232H151.484V28.432H149.196ZM161.248 31.28C161.248 31.5573 161.232 31.8507 161.2 32.16H154.192C154.245 33.024 154.538 33.7013 155.072 34.192C155.616 34.672 156.272 34.912 157.04 34.912C157.669 34.912 158.192 34.768 158.608 34.48C159.034 34.1813 159.333 33.7867 159.504 33.296H161.072C160.837 34.1387 160.368 34.8267 159.664 35.36C158.96 35.8827 158.085 36.144 157.04 36.144C156.208 36.144 155.461 35.9573 154.8 35.584C154.149 35.2107 153.637 34.6827 153.264 34C152.89 33.3067 152.704 32.5067 152.704 31.6C152.704 30.6933 152.885 29.8987 153.248 29.216C153.61 28.5333 154.117 28.0107 154.768 27.648C155.429 27.2747 156.186 27.088 157.04 27.088C157.872 27.088 158.608 27.2693 159.248 27.632C159.888 27.9947 160.378 28.496 160.72 29.136C161.072 29.7653 161.248 30.48 161.248 31.28ZM159.744 30.976C159.744 30.4213 159.621 29.9467 159.376 29.552C159.13 29.1467 158.794 28.8427 158.368 28.64C157.952 28.4267 157.488 28.32 156.976 28.32C156.24 28.32 155.61 28.5547 155.088 29.024C154.576 29.4933 154.282 30.144 154.208 30.976H159.744ZM168.891 28.656C169.147 28.1547 169.51 27.7653 169.979 27.488C170.459 27.2107 171.04 27.072 171.723 27.072V28.576H171.339C169.707 28.576 168.891 29.4613 168.891 31.232V36H167.435V27.232H168.891V28.656ZM181.404 31.28C181.404 31.5573 181.388 31.8507 181.356 32.16H174.348C174.401 33.024 174.695 33.7013 175.228 34.192C175.772 34.672 176.428 34.912 177.196 34.912C177.825 34.912 178.348 34.768 178.764 34.48C179.191 34.1813 179.489 33.7867 179.66 33.296H181.228C180.993 34.1387 180.524 34.8267 179.82 35.36C179.116 35.8827 178.241 36.144 177.196 36.144C176.364 36.144 175.617 35.9573 174.956 35.584C174.305 35.2107 173.793 34.6827 173.42 34C173.047 33.3067 172.86 32.5067 172.86 31.6C172.86 30.6933 173.041 29.8987 173.404 29.216C173.767 28.5333 174.273 28.0107 174.924 27.648C175.585 27.2747 176.343 27.088 177.196 27.088C178.028 27.088 178.764 27.2693 179.404 27.632C180.044 27.9947 180.535 28.496 180.876 29.136C181.228 29.7653 181.404 30.48 181.404 31.28ZM179.9 30.976C179.9 30.4213 179.777 29.9467 179.532 29.552C179.287 29.1467 178.951 28.8427 178.524 28.64C178.108 28.4267 177.644 28.32 177.132 28.32C176.396 28.32 175.767 28.5547 175.244 29.024C174.732 29.4933 174.439 30.144 174.364 30.976H179.9ZM182.782 31.6C182.782 30.6933 182.963 29.904 183.326 29.232C183.688 28.5493 184.19 28.0213 184.83 27.648C185.48 27.2747 186.222 27.088 187.054 27.088C188.131 27.088 189.016 27.3493 189.71 27.872C190.414 28.3947 190.878 29.12 191.102 30.048H189.534C189.384 29.5147 189.091 29.0933 188.654 28.784C188.227 28.4747 187.694 28.32 187.054 28.32C186.222 28.32 185.55 28.608 185.038 29.184C184.526 29.7493 184.27 30.5547 184.27 31.6C184.27 32.656 184.526 33.472 185.038 34.048C185.55 34.624 186.222 34.912 187.054 34.912C187.694 34.912 188.227 34.7627 188.654 34.464C189.08 34.1653 189.374 33.7387 189.534 33.184H191.102C190.867 34.08 190.398 34.8 189.694 35.344C188.99 35.8773 188.11 36.144 187.054 36.144C186.222 36.144 185.48 35.9573 184.83 35.584C184.19 35.2107 183.688 34.6827 183.326 34C182.963 33.3173 182.782 32.5173 182.782 31.6ZM193.797 25.808C193.519 25.808 193.285 25.712 193.093 25.52C192.901 25.328 192.805 25.0933 192.805 24.816C192.805 24.5387 192.901 24.304 193.093 24.112C193.285 23.92 193.519 23.824 193.797 23.824C194.063 23.824 194.287 23.92 194.469 24.112C194.661 24.304 194.757 24.5387 194.757 24.816C194.757 25.0933 194.661 25.328 194.469 25.52C194.287 25.712 194.063 25.808 193.797 25.808ZM194.501 27.232V36H193.045V27.232H194.501ZM198.438 28.848C198.726 28.3467 199.153 27.9307 199.718 27.6C200.294 27.2587 200.961 27.088 201.718 27.088C202.497 27.088 203.201 27.2747 203.83 27.648C204.47 28.0213 204.971 28.5493 205.334 29.232C205.697 29.904 205.878 30.688 205.878 31.584C205.878 32.4693 205.697 33.2587 205.334 33.952C204.971 34.6453 204.47 35.184 203.83 35.568C203.201 35.952 202.497 36.144 201.718 36.144C200.971 36.144 200.31 35.9787 199.734 35.648C199.169 35.3067 198.737 34.8853 198.438 34.384V40.16H196.982V27.232H198.438V28.848ZM204.39 31.584C204.39 30.9227 204.257 30.3467 203.99 29.856C203.723 29.3653 203.361 28.992 202.902 28.736C202.454 28.48 201.958 28.352 201.414 28.352C200.881 28.352 200.385 28.4853 199.926 28.752C199.478 29.008 199.115 29.3867 198.838 29.888C198.571 30.3787 198.438 30.9493 198.438 31.6C198.438 32.2613 198.571 32.8427 198.838 33.344C199.115 33.8347 199.478 34.2133 199.926 34.48C200.385 34.736 200.881 34.864 201.414 34.864C201.958 34.864 202.454 34.736 202.902 34.48C203.361 34.2133 203.723 33.8347 203.99 33.344C204.257 32.8427 204.39 32.256 204.39 31.584ZM215.795 31.28C215.795 31.5573 215.779 31.8507 215.747 32.16H208.739C208.792 33.024 209.085 33.7013 209.619 34.192C210.163 34.672 210.819 34.912 211.587 34.912C212.216 34.912 212.739 34.768 213.155 34.48C213.581 34.1813 213.88 33.7867 214.051 33.296H215.619C215.384 34.1387 214.915 34.8267 214.211 35.36C213.507 35.8827 212.632 36.144 211.587 36.144C210.755 36.144 210.008 35.9573 209.347 35.584C208.696 35.2107 208.184 34.6827 207.811 34C207.437 33.3067 207.251 32.5067 207.251 31.6C207.251 30.6933 207.432 29.8987 207.795 29.216C208.157 28.5333 208.664 28.0107 209.315 27.648C209.976 27.2747 210.733 27.088 211.587 27.088C212.419 27.088 213.155 27.2693 213.795 27.632C214.435 27.9947 214.925 28.496 215.267 29.136C215.619 29.7653 215.795 30.48 215.795 31.28ZM214.291 30.976C214.291 30.4213 214.168 29.9467 213.923 29.552C213.677 29.1467 213.341 28.8427 212.915 28.64C212.499 28.4267 212.035 28.32 211.523 28.32C210.787 28.32 210.157 28.5547 209.635 29.024C209.123 29.4933 208.829 30.144 208.755 30.976H214.291ZM220.82 36.144C220.148 36.144 219.546 36.032 219.012 35.808C218.479 35.5733 218.058 35.2533 217.748 34.848C217.439 34.432 217.268 33.9573 217.236 33.424H218.74C218.783 33.8613 218.986 34.2187 219.348 34.496C219.722 34.7733 220.207 34.912 220.804 34.912C221.359 34.912 221.796 34.7893 222.116 34.544C222.436 34.2987 222.596 33.9893 222.596 33.616C222.596 33.232 222.426 32.9493 222.084 32.768C221.743 32.576 221.215 32.3893 220.5 32.208C219.85 32.0373 219.316 31.8667 218.9 31.696C218.495 31.5147 218.143 31.2533 217.844 30.912C217.556 30.56 217.412 30.1013 217.412 29.536C217.412 29.088 217.546 28.6773 217.812 28.304C218.079 27.9307 218.458 27.6373 218.948 27.424C219.439 27.2 219.999 27.088 220.628 27.088C221.599 27.088 222.383 27.3333 222.98 27.824C223.578 28.3147 223.898 28.9867 223.94 29.84H222.484C222.452 29.3813 222.266 29.0133 221.924 28.736C221.594 28.4587 221.146 28.32 220.58 28.32C220.058 28.32 219.642 28.432 219.332 28.656C219.023 28.88 218.868 29.1733 218.868 29.536C218.868 29.824 218.959 30.064 219.14 30.256C219.332 30.4373 219.567 30.5867 219.844 30.704C220.132 30.8107 220.527 30.9333 221.028 31.072C221.658 31.2427 222.17 31.4133 222.564 31.584C222.959 31.744 223.295 31.9893 223.572 32.32C223.86 32.6507 224.01 33.0827 224.02 33.616C224.02 34.096 223.887 34.528 223.62 34.912C223.354 35.296 222.975 35.6 222.484 35.824C222.004 36.0373 221.45 36.144 220.82 36.144Z" fill="#23262A"/>
</svg>
