<svg width="239" height="61" viewBox="0 0 239 61" fill="none" xmlns="http://www.w3.org/2000/svg">
<path d="M1 20.3333C1 9.65583 9.65583 1 20.3333 1H198.333C220.241 1 238 18.7594 238 40.6667C238 51.3442 229.344 60 218.667 60H40.6667C18.7594 60 1 42.2406 1 20.3333Z" stroke="#8BAA36" stroke-width="2"/>
<path d="M58.288 38.112C57.2533 38.112 56.3093 37.872 55.456 37.392C54.6027 36.9013 53.9253 36.224 53.424 35.36C52.9333 34.4853 52.688 33.504 52.688 32.416C52.688 31.328 52.9333 30.352 53.424 29.488C53.9253 28.6133 54.6027 27.936 55.456 27.456C56.3093 26.9653 57.2533 26.72 58.288 26.72C59.3333 26.72 60.2827 26.9653 61.136 27.456C61.9893 27.936 62.6613 28.608 63.152 29.472C63.6427 30.336 63.888 31.3173 63.888 32.416C63.888 33.5147 63.6427 34.496 63.152 35.36C62.6613 36.224 61.9893 36.9013 61.136 37.392C60.2827 37.872 59.3333 38.112 58.288 38.112ZM58.288 36.848C59.0667 36.848 59.7653 36.6667 60.384 36.304C61.0133 35.9413 61.504 35.424 61.856 34.752C62.2187 34.08 62.4 33.3013 62.4 32.416C62.4 31.52 62.2187 30.7413 61.856 30.08C61.504 29.408 61.0187 28.8907 60.4 28.528C59.7813 28.1653 59.0773 27.984 58.288 27.984C57.4987 27.984 56.7947 28.1653 56.176 28.528C55.5573 28.8907 55.0667 29.408 54.704 30.08C54.352 30.7413 54.176 31.52 54.176 32.416C54.176 33.3013 54.352 34.08 54.704 34.752C55.0667 35.424 55.5573 35.9413 56.176 36.304C56.8053 36.6667 57.5093 36.848 58.288 36.848ZM67.5861 30.432V35.6C67.5861 36.0267 67.6768 36.3307 67.8581 36.512C68.0395 36.6827 68.3541 36.768 68.8021 36.768H69.8741V38H68.5621C67.7515 38 67.1435 37.8133 66.7381 37.44C66.3328 37.0667 66.1301 36.4533 66.1301 35.6V30.432H64.9941V29.232H66.1301V27.024H67.5861V29.232H69.8741V30.432H67.5861ZM75.9903 29.072C76.6516 29.072 77.2489 29.216 77.7823 29.504C78.3156 29.7813 78.7316 30.2027 79.0303 30.768C79.3396 31.3333 79.4943 32.0213 79.4943 32.832V38H78.0543V33.04C78.0543 32.1653 77.8356 31.4987 77.3983 31.04C76.9609 30.5707 76.3636 30.336 75.6063 30.336C74.8383 30.336 74.2249 30.576 73.7663 31.056C73.3183 31.536 73.0943 32.2347 73.0943 33.152V38H71.6383V26.16H73.0943V30.48C73.3823 30.032 73.7769 29.6853 74.2783 29.44C74.7903 29.1947 75.3609 29.072 75.9903 29.072ZM89.8726 33.28C89.8726 33.5573 89.8566 33.8507 89.8246 34.16H82.8166C82.87 35.024 83.1633 35.7013 83.6966 36.192C84.2406 36.672 84.8966 36.912 85.6646 36.912C86.294 36.912 86.8166 36.768 87.2326 36.48C87.6593 36.1813 87.958 35.7867 88.1286 35.296H89.6966C89.462 36.1387 88.9926 36.8267 88.2886 37.36C87.5846 37.8827 86.71 38.144 85.6646 38.144C84.8326 38.144 84.086 37.9573 83.4246 37.584C82.774 37.2107 82.262 36.6827 81.8886 36C81.5153 35.3067 81.3286 34.5067 81.3286 33.6C81.3286 32.6933 81.51 31.8987 81.8726 31.216C82.2353 30.5333 82.742 30.0107 83.3926 29.648C84.054 29.2747 84.8113 29.088 85.6646 29.088C86.4966 29.088 87.2326 29.2693 87.8726 29.632C88.5126 29.9947 89.0033 30.496 89.3446 31.136C89.6966 31.7653 89.8726 32.48 89.8726 33.28ZM88.3686 32.976C88.3686 32.4213 88.246 31.9467 88.0006 31.552C87.7553 31.1467 87.4193 30.8427 86.9926 30.64C86.5766 30.4267 86.1126 30.32 85.6006 30.32C84.8646 30.32 84.2353 30.5547 83.7126 31.024C83.2006 31.4933 82.9073 32.144 82.8326 32.976H88.3686ZM93.2505 30.656C93.5065 30.1547 93.8692 29.7653 94.3385 29.488C94.8185 29.2107 95.3998 29.072 96.0825 29.072V30.576H95.6985C94.0665 30.576 93.2505 31.4613 93.2505 33.232V38H91.7945V29.232H93.2505V30.656ZM101.485 33.6C101.485 32.6933 101.666 31.904 102.029 31.232C102.392 30.5493 102.893 30.0213 103.533 29.648C104.184 29.2747 104.925 29.088 105.757 29.088C106.834 29.088 107.72 29.3493 108.413 29.872C109.117 30.3947 109.581 31.12 109.805 32.048H108.237C108.088 31.5147 107.794 31.0933 107.357 30.784C106.93 30.4747 106.397 30.32 105.757 30.32C104.925 30.32 104.253 30.608 103.741 31.184C103.229 31.7493 102.973 32.5547 102.973 33.6C102.973 34.656 103.229 35.472 103.741 36.048C104.253 36.624 104.925 36.912 105.757 36.912C106.397 36.912 106.93 36.7627 107.357 36.464C107.784 36.1653 108.077 35.7387 108.237 35.184H109.805C109.57 36.08 109.101 36.8 108.397 37.344C107.693 37.8773 106.813 38.144 105.757 38.144C104.925 38.144 104.184 37.9573 103.533 37.584C102.893 37.2107 102.392 36.6827 102.029 36C101.666 35.3173 101.485 34.5173 101.485 33.6ZM111.204 33.584C111.204 32.688 111.385 31.904 111.748 31.232C112.11 30.5493 112.606 30.0213 113.236 29.648C113.876 29.2747 114.585 29.088 115.364 29.088C116.132 29.088 116.798 29.2533 117.364 29.584C117.929 29.9147 118.35 30.3307 118.628 30.832V29.232H120.1V38H118.628V36.368C118.34 36.88 117.908 37.3067 117.332 37.648C116.766 37.9787 116.105 38.144 115.348 38.144C114.569 38.144 113.865 37.952 113.236 37.568C112.606 37.184 112.11 36.6453 111.748 35.952C111.385 35.2587 111.204 34.4693 111.204 33.584ZM118.628 33.6C118.628 32.9387 118.494 32.3627 118.228 31.872C117.961 31.3813 117.598 31.008 117.14 30.752C116.692 30.4853 116.196 30.352 115.652 30.352C115.108 30.352 114.612 30.48 114.164 30.736C113.716 30.992 113.358 31.3653 113.092 31.856C112.825 32.3467 112.692 32.9227 112.692 33.584C112.692 34.256 112.825 34.8427 113.092 35.344C113.358 35.8347 113.716 36.2133 114.164 36.48C114.612 36.736 115.108 36.864 115.652 36.864C116.196 36.864 116.692 36.736 117.14 36.48C117.598 36.2133 117.961 35.8347 118.228 35.344C118.494 34.8427 118.628 34.2613 118.628 33.6ZM124.336 30.432V35.6C124.336 36.0267 124.427 36.3307 124.608 36.512C124.789 36.6827 125.104 36.768 125.552 36.768H126.624V38H125.312C124.501 38 123.893 37.8133 123.488 37.44C123.083 37.0667 122.88 36.4533 122.88 35.6V30.432H121.744V29.232H122.88V27.024H124.336V29.232H126.624V30.432H124.336ZM136.388 33.28C136.388 33.5573 136.372 33.8507 136.34 34.16H129.332C129.386 35.024 129.679 35.7013 130.212 36.192C130.756 36.672 131.412 36.912 132.18 36.912C132.81 36.912 133.332 36.768 133.748 36.48C134.175 36.1813 134.474 35.7867 134.644 35.296H136.212C135.978 36.1387 135.508 36.8267 134.804 37.36C134.1 37.8827 133.226 38.144 132.18 38.144C131.348 38.144 130.602 37.9573 129.94 37.584C129.29 37.2107 128.778 36.6827 128.404 36C128.031 35.3067 127.844 34.5067 127.844 33.6C127.844 32.6933 128.026 31.8987 128.388 31.216C128.751 30.5333 129.258 30.0107 129.908 29.648C130.57 29.2747 131.327 29.088 132.18 29.088C133.012 29.088 133.748 29.2693 134.388 29.632C135.028 29.9947 135.519 30.496 135.86 31.136C136.212 31.7653 136.388 32.48 136.388 33.28ZM134.884 32.976C134.884 32.4213 134.762 31.9467 134.516 31.552C134.271 31.1467 133.935 30.8427 133.508 30.64C133.092 30.4267 132.628 30.32 132.116 30.32C131.38 30.32 130.751 30.5547 130.228 31.024C129.716 31.4933 129.423 32.144 129.348 32.976H134.884ZM141.926 29.088C142.683 29.088 143.345 29.2533 143.91 29.584C144.486 29.9147 144.913 30.3307 145.19 30.832V29.232H146.662V38.192C146.662 38.992 146.491 39.7013 146.15 40.32C145.809 40.9493 145.318 41.44 144.678 41.792C144.049 42.144 143.313 42.32 142.47 42.32C141.318 42.32 140.358 42.048 139.59 41.504C138.822 40.96 138.369 40.2187 138.23 39.28H139.67C139.83 39.8133 140.161 40.24 140.662 40.56C141.163 40.8907 141.766 41.056 142.47 41.056C143.27 41.056 143.921 40.8053 144.422 40.304C144.934 39.8027 145.19 39.0987 145.19 38.192V36.352C144.902 36.864 144.475 37.2907 143.91 37.632C143.345 37.9733 142.683 38.144 141.926 38.144C141.147 38.144 140.438 37.952 139.798 37.568C139.169 37.184 138.673 36.6453 138.31 35.952C137.947 35.2587 137.766 34.4693 137.766 33.584C137.766 32.688 137.947 31.904 138.31 31.232C138.673 30.5493 139.169 30.0213 139.798 29.648C140.438 29.2747 141.147 29.088 141.926 29.088ZM145.19 33.6C145.19 32.9387 145.057 32.3627 144.79 31.872C144.523 31.3813 144.161 31.008 143.702 30.752C143.254 30.4853 142.758 30.352 142.214 30.352C141.67 30.352 141.174 30.48 140.726 30.736C140.278 30.992 139.921 31.3653 139.654 31.856C139.387 32.3467 139.254 32.9227 139.254 33.584C139.254 34.256 139.387 34.8427 139.654 35.344C139.921 35.8347 140.278 36.2133 140.726 36.48C141.174 36.736 141.67 36.864 142.214 36.864C142.758 36.864 143.254 36.736 143.702 36.48C144.161 36.2133 144.523 35.8347 144.79 35.344C145.057 34.8427 145.19 34.2613 145.19 33.6ZM152.947 38.144C152.125 38.144 151.379 37.9573 150.707 37.584C150.045 37.2107 149.523 36.6827 149.139 36C148.765 35.3067 148.579 34.5067 148.579 33.6C148.579 32.704 148.771 31.9147 149.155 31.232C149.549 30.5387 150.083 30.0107 150.755 29.648C151.427 29.2747 152.179 29.088 153.011 29.088C153.843 29.088 154.595 29.2747 155.267 29.648C155.939 30.0107 156.467 30.5333 156.851 31.216C157.245 31.8987 157.443 32.6933 157.443 33.6C157.443 34.5067 157.24 35.3067 156.835 36C156.44 36.6827 155.901 37.2107 155.219 37.584C154.536 37.9573 153.779 38.144 152.947 38.144ZM152.947 36.864C153.469 36.864 153.96 36.7413 154.419 36.496C154.877 36.2507 155.245 35.8827 155.523 35.392C155.811 34.9013 155.955 34.304 155.955 33.6C155.955 32.896 155.816 32.2987 155.539 31.808C155.261 31.3173 154.899 30.9547 154.451 30.72C154.003 30.4747 153.517 30.352 152.995 30.352C152.461 30.352 151.971 30.4747 151.523 30.72C151.085 30.9547 150.733 31.3173 150.467 31.808C150.2 32.2987 150.067 32.896 150.067 33.6C150.067 34.3147 150.195 34.9173 150.451 35.408C150.717 35.8987 151.069 36.2667 151.507 36.512C151.944 36.7467 152.424 36.864 152.947 36.864ZM160.813 30.656C161.069 30.1547 161.432 29.7653 161.901 29.488C162.381 29.2107 162.962 29.072 163.645 29.072V30.576H163.261C161.629 30.576 160.813 31.4613 160.813 33.232V38H159.357V29.232H160.813V30.656ZM166.078 27.808C165.8 27.808 165.566 27.712 165.374 27.52C165.182 27.328 165.086 27.0933 165.086 26.816C165.086 26.5387 165.182 26.304 165.374 26.112C165.566 25.92 165.8 25.824 166.078 25.824C166.344 25.824 166.568 25.92 166.75 26.112C166.942 26.304 167.038 26.5387 167.038 26.816C167.038 27.0933 166.942 27.328 166.75 27.52C166.568 27.712 166.344 27.808 166.078 27.808ZM166.782 29.232V38H165.326V29.232H166.782ZM177.263 33.28C177.263 33.5573 177.247 33.8507 177.215 34.16H170.207C170.261 35.024 170.554 35.7013 171.087 36.192C171.631 36.672 172.287 36.912 173.055 36.912C173.685 36.912 174.207 36.768 174.623 36.48C175.05 36.1813 175.349 35.7867 175.519 35.296H177.087C176.853 36.1387 176.383 36.8267 175.679 37.36C174.975 37.8827 174.101 38.144 173.055 38.144C172.223 38.144 171.477 37.9573 170.815 37.584C170.165 37.2107 169.653 36.6827 169.279 36C168.906 35.3067 168.719 34.5067 168.719 33.6C168.719 32.6933 168.901 31.8987 169.263 31.216C169.626 30.5333 170.133 30.0107 170.783 29.648C171.445 29.2747 172.202 29.088 173.055 29.088C173.887 29.088 174.623 29.2693 175.263 29.632C175.903 29.9947 176.394 30.496 176.735 31.136C177.087 31.7653 177.263 32.48 177.263 33.28ZM175.759 32.976C175.759 32.4213 175.637 31.9467 175.391 31.552C175.146 31.1467 174.81 30.8427 174.383 30.64C173.967 30.4267 173.503 30.32 172.991 30.32C172.255 30.32 171.626 30.5547 171.103 31.024C170.591 31.4933 170.298 32.144 170.223 32.976H175.759ZM182.289 38.144C181.617 38.144 181.014 38.032 180.481 37.808C179.948 37.5733 179.526 37.2533 179.217 36.848C178.908 36.432 178.737 35.9573 178.705 35.424H180.209C180.252 35.8613 180.454 36.2187 180.817 36.496C181.19 36.7733 181.676 36.912 182.273 36.912C182.828 36.912 183.265 36.7893 183.585 36.544C183.905 36.2987 184.065 35.9893 184.065 35.616C184.065 35.232 183.894 34.9493 183.553 34.768C183.212 34.576 182.684 34.3893 181.969 34.208C181.318 34.0373 180.785 33.8667 180.369 33.696C179.964 33.5147 179.612 33.2533 179.313 32.912C179.025 32.56 178.881 32.1013 178.881 31.536C178.881 31.088 179.014 30.6773 179.281 30.304C179.548 29.9307 179.926 29.6373 180.417 29.424C180.908 29.2 181.468 29.088 182.097 29.088C183.068 29.088 183.852 29.3333 184.449 29.824C185.046 30.3147 185.366 30.9867 185.409 31.84H183.953C183.921 31.3813 183.734 31.0133 183.393 30.736C183.062 30.4587 182.614 30.32 182.049 30.32C181.526 30.32 181.11 30.432 180.801 30.656C180.492 30.88 180.337 31.1733 180.337 31.536C180.337 31.824 180.428 32.064 180.609 32.256C180.801 32.4373 181.036 32.5867 181.313 32.704C181.601 32.8107 181.996 32.9333 182.497 33.072C183.126 33.2427 183.638 33.4133 184.033 33.584C184.428 33.744 184.764 33.9893 185.041 34.32C185.329 34.6507 185.478 35.0827 185.489 35.616C185.489 36.096 185.356 36.528 185.089 36.912C184.822 37.296 184.444 37.6 183.953 37.824C183.473 38.0373 182.918 38.144 182.289 38.144Z" fill="#22252A"/>
</svg>
