<svg width="270" height="59" viewBox="0 0 270 59" fill="none" xmlns="http://www.w3.org/2000/svg">
<path d="M1 19.6667C1 9.35735 9.35735 1 19.6667 1H230.667C251.838 1 269 18.1624 269 39.3333C269 49.6426 260.643 58 250.333 58H39.3333C18.1624 58 1 40.8376 1 19.6667Z" stroke="#8BAA36" stroke-width="2"/>
<path d="M51.104 36L48.448 31.44H46.688V36H45.232V24.848H48.832C49.6747 24.848 50.384 24.992 50.96 25.28C51.5467 25.568 51.984 25.9573 52.272 26.448C52.56 26.9387 52.704 27.4987 52.704 28.128C52.704 28.896 52.48 29.5733 52.032 30.16C51.5947 30.7467 50.9333 31.136 50.048 31.328L52.848 36H51.104ZM46.688 30.272H48.832C49.6213 30.272 50.2133 30.08 50.608 29.696C51.0027 29.3013 51.2 28.7787 51.2 28.128C51.2 27.4667 51.0027 26.9547 50.608 26.592C50.224 26.2293 49.632 26.048 48.832 26.048H46.688V30.272ZM62.9664 31.28C62.9664 31.5573 62.9504 31.8507 62.9184 32.16H55.9104C55.9637 33.024 56.257 33.7013 56.7904 34.192C57.3344 34.672 57.9904 34.912 58.7584 34.912C59.3877 34.912 59.9104 34.768 60.3264 34.48C60.753 34.1813 61.0517 33.7867 61.2224 33.296H62.7904C62.5557 34.1387 62.0864 34.8267 61.3824 35.36C60.6784 35.8827 59.8037 36.144 58.7584 36.144C57.9264 36.144 57.1797 35.9573 56.5184 35.584C55.8677 35.2107 55.3557 34.6827 54.9824 34C54.609 33.3067 54.4224 32.5067 54.4224 31.6C54.4224 30.6933 54.6037 29.8987 54.9664 29.216C55.329 28.5333 55.8357 28.0107 56.4864 27.648C57.1477 27.2747 57.905 27.088 58.7584 27.088C59.5904 27.088 60.3264 27.2693 60.9664 27.632C61.6064 27.9947 62.097 28.496 62.4384 29.136C62.7904 29.7653 62.9664 30.48 62.9664 31.28ZM61.4624 30.976C61.4624 30.4213 61.3397 29.9467 61.0944 29.552C60.849 29.1467 60.513 28.8427 60.0864 28.64C59.6704 28.4267 59.2064 28.32 58.6944 28.32C57.9584 28.32 57.329 28.5547 56.8064 29.024C56.2944 29.4933 56.001 30.144 55.9264 30.976H61.4624ZM75.4323 27.072C76.1149 27.072 76.7229 27.216 77.2563 27.504C77.7896 27.7813 78.2109 28.2027 78.5203 28.768C78.8296 29.3333 78.9843 30.0213 78.9843 30.832V36H77.5443V31.04C77.5443 30.1653 77.3256 29.4987 76.8883 29.04C76.4616 28.5707 75.8803 28.336 75.1443 28.336C74.3869 28.336 73.7843 28.5813 73.3363 29.072C72.8883 29.552 72.6643 30.2507 72.6643 31.168V36H71.2243V31.04C71.2243 30.1653 71.0056 29.4987 70.5683 29.04C70.1416 28.5707 69.5603 28.336 68.8243 28.336C68.0669 28.336 67.4643 28.5813 67.0163 29.072C66.5683 29.552 66.3443 30.2507 66.3443 31.168V36H64.8883V27.232H66.3443V28.496C66.6323 28.0373 67.0163 27.6853 67.4963 27.44C67.9869 27.1947 68.5256 27.072 69.1123 27.072C69.8483 27.072 70.4989 27.2373 71.0643 27.568C71.6296 27.8987 72.0509 28.384 72.3283 29.024C72.5736 28.4053 72.9789 27.9253 73.5443 27.584C74.1096 27.2427 74.7389 27.072 75.4323 27.072ZM85.1966 36.144C84.3753 36.144 83.6286 35.9573 82.9566 35.584C82.2953 35.2107 81.7726 34.6827 81.3886 34C81.0153 33.3067 80.8286 32.5067 80.8286 31.6C80.8286 30.704 81.0206 29.9147 81.4046 29.232C81.7993 28.5387 82.3326 28.0107 83.0046 27.648C83.6766 27.2747 84.4286 27.088 85.2606 27.088C86.0926 27.088 86.8446 27.2747 87.5166 27.648C88.1886 28.0107 88.7166 28.5333 89.1006 29.216C89.4953 29.8987 89.6926 30.6933 89.6926 31.6C89.6926 32.5067 89.49 33.3067 89.0846 34C88.69 34.6827 88.1513 35.2107 87.4686 35.584C86.786 35.9573 86.0286 36.144 85.1966 36.144ZM85.1966 34.864C85.7193 34.864 86.21 34.7413 86.6686 34.496C87.1273 34.2507 87.4953 33.8827 87.7726 33.392C88.0606 32.9013 88.2046 32.304 88.2046 31.6C88.2046 30.896 88.066 30.2987 87.7886 29.808C87.5113 29.3173 87.1486 28.9547 86.7006 28.72C86.2526 28.4747 85.7673 28.352 85.2446 28.352C84.7113 28.352 84.2206 28.4747 83.7726 28.72C83.3353 28.9547 82.9833 29.3173 82.7166 29.808C82.45 30.2987 82.3166 30.896 82.3166 31.6C82.3166 32.3147 82.4446 32.9173 82.7006 33.408C82.9673 33.8987 83.3193 34.2667 83.7566 34.512C84.194 34.7467 84.674 34.864 85.1966 34.864ZM94.871 34.656L97.591 27.232H99.143L95.703 36H94.007L90.567 27.232H92.135L94.871 34.656ZM108.576 31.28C108.576 31.5573 108.56 31.8507 108.528 32.16H101.52C101.573 33.024 101.866 33.7013 102.4 34.192C102.944 34.672 103.6 34.912 104.368 34.912C104.997 34.912 105.52 34.768 105.936 34.48C106.362 34.1813 106.661 33.7867 106.832 33.296H108.4C108.165 34.1387 107.696 34.8267 106.992 35.36C106.288 35.8827 105.413 36.144 104.368 36.144C103.536 36.144 102.789 35.9573 102.128 35.584C101.477 35.2107 100.965 34.6827 100.592 34C100.218 33.3067 100.032 32.5067 100.032 31.6C100.032 30.6933 100.213 29.8987 100.576 29.216C100.938 28.5333 101.445 28.0107 102.096 27.648C102.757 27.2747 103.514 27.088 104.368 27.088C105.2 27.088 105.936 27.2693 106.576 27.632C107.216 27.9947 107.706 28.496 108.048 29.136C108.4 29.7653 108.576 30.48 108.576 31.28ZM107.072 30.976C107.072 30.4213 106.949 29.9467 106.704 29.552C106.458 29.1467 106.122 28.8427 105.696 28.64C105.28 28.4267 104.816 28.32 104.304 28.32C103.568 28.32 102.938 28.5547 102.416 29.024C101.904 29.4933 101.61 30.144 101.536 30.976H107.072ZM118.331 28.432H116.491V36H115.035V28.432H113.899V27.232H115.035V26.608C115.035 25.6267 115.286 24.912 115.787 24.464C116.299 24.0053 117.115 23.776 118.235 23.776V24.992C117.595 24.992 117.142 25.12 116.875 25.376C116.619 25.6213 116.491 26.032 116.491 26.608V27.232H118.331V28.432ZM121.485 28.656C121.741 28.1547 122.104 27.7653 122.573 27.488C123.053 27.2107 123.634 27.072 124.317 27.072V28.576H123.933C122.301 28.576 121.485 29.4613 121.485 31.232V36H120.029V27.232H121.485V28.656ZM129.822 36.144C129 36.144 128.254 35.9573 127.582 35.584C126.92 35.2107 126.398 34.6827 126.014 34C125.64 33.3067 125.454 32.5067 125.454 31.6C125.454 30.704 125.646 29.9147 126.03 29.232C126.424 28.5387 126.958 28.0107 127.63 27.648C128.302 27.2747 129.054 27.088 129.886 27.088C130.718 27.088 131.47 27.2747 132.142 27.648C132.814 28.0107 133.342 28.5333 133.726 29.216C134.12 29.8987 134.318 30.6933 134.318 31.6C134.318 32.5067 134.115 33.3067 133.71 34C133.315 34.6827 132.776 35.2107 132.094 35.584C131.411 35.9573 130.654 36.144 129.822 36.144ZM129.822 34.864C130.344 34.864 130.835 34.7413 131.294 34.496C131.752 34.2507 132.12 33.8827 132.398 33.392C132.686 32.9013 132.83 32.304 132.83 31.6C132.83 30.896 132.691 30.2987 132.414 29.808C132.136 29.3173 131.774 28.9547 131.326 28.72C130.878 28.4747 130.392 28.352 129.87 28.352C129.336 28.352 128.846 28.4747 128.398 28.72C127.96 28.9547 127.608 29.3173 127.342 29.808C127.075 30.2987 126.942 30.896 126.942 31.6C126.942 32.3147 127.07 32.9173 127.326 33.408C127.592 33.8987 127.944 34.2667 128.382 34.512C128.819 34.7467 129.299 34.864 129.822 34.864ZM146.776 27.072C147.459 27.072 148.067 27.216 148.6 27.504C149.133 27.7813 149.555 28.2027 149.864 28.768C150.173 29.3333 150.328 30.0213 150.328 30.832V36H148.888V31.04C148.888 30.1653 148.669 29.4987 148.232 29.04C147.805 28.5707 147.224 28.336 146.488 28.336C145.731 28.336 145.128 28.5813 144.68 29.072C144.232 29.552 144.008 30.2507 144.008 31.168V36H142.568V31.04C142.568 30.1653 142.349 29.4987 141.912 29.04C141.485 28.5707 140.904 28.336 140.168 28.336C139.411 28.336 138.808 28.5813 138.36 29.072C137.912 29.552 137.688 30.2507 137.688 31.168V36H136.232V27.232H137.688V28.496C137.976 28.0373 138.36 27.6853 138.84 27.44C139.331 27.1947 139.869 27.072 140.456 27.072C141.192 27.072 141.843 27.2373 142.408 27.568C142.973 27.8987 143.395 28.384 143.672 29.024C143.917 28.4053 144.323 27.9253 144.888 27.584C145.453 27.2427 146.083 27.072 146.776 27.072ZM160.55 28.432H158.71V36H157.254V28.432H156.118V27.232H157.254V26.608C157.254 25.6267 157.505 24.912 158.006 24.464C158.518 24.0053 159.334 23.776 160.454 23.776V24.992C159.814 24.992 159.361 25.12 159.094 25.376C158.838 25.6213 158.71 26.032 158.71 26.608V27.232H160.55V28.432ZM161.704 31.584C161.704 30.688 161.885 29.904 162.248 29.232C162.61 28.5493 163.106 28.0213 163.736 27.648C164.376 27.2747 165.085 27.088 165.864 27.088C166.632 27.088 167.298 27.2533 167.864 27.584C168.429 27.9147 168.85 28.3307 169.128 28.832V27.232H170.6V36H169.128V34.368C168.84 34.88 168.408 35.3067 167.832 35.648C167.266 35.9787 166.605 36.144 165.848 36.144C165.069 36.144 164.365 35.952 163.736 35.568C163.106 35.184 162.61 34.6453 162.248 33.952C161.885 33.2587 161.704 32.4693 161.704 31.584ZM169.128 31.6C169.128 30.9387 168.994 30.3627 168.728 29.872C168.461 29.3813 168.098 29.008 167.64 28.752C167.192 28.4853 166.696 28.352 166.152 28.352C165.608 28.352 165.112 28.48 164.664 28.736C164.216 28.992 163.858 29.3653 163.592 29.856C163.325 30.3467 163.192 30.9227 163.192 31.584C163.192 32.256 163.325 32.8427 163.592 33.344C163.858 33.8347 164.216 34.2133 164.664 34.48C165.112 34.736 165.608 34.864 166.152 34.864C166.696 34.864 167.192 34.736 167.64 34.48C168.098 34.2133 168.461 33.8347 168.728 33.344C168.994 32.8427 169.128 32.2613 169.128 31.6ZM176.324 34.656L179.044 27.232H180.596L177.156 36H175.46L172.02 27.232H173.588L176.324 34.656ZM185.853 36.144C185.032 36.144 184.285 35.9573 183.613 35.584C182.952 35.2107 182.429 34.6827 182.045 34C181.672 33.3067 181.485 32.5067 181.485 31.6C181.485 30.704 181.677 29.9147 182.061 29.232C182.456 28.5387 182.989 28.0107 183.661 27.648C184.333 27.2747 185.085 27.088 185.917 27.088C186.749 27.088 187.501 27.2747 188.173 27.648C188.845 28.0107 189.373 28.5333 189.757 29.216C190.152 29.8987 190.349 30.6933 190.349 31.6C190.349 32.5067 190.146 33.3067 189.741 34C189.346 34.6827 188.808 35.2107 188.125 35.584C187.442 35.9573 186.685 36.144 185.853 36.144ZM185.853 34.864C186.376 34.864 186.866 34.7413 187.325 34.496C187.784 34.2507 188.152 33.8827 188.429 33.392C188.717 32.9013 188.861 32.304 188.861 31.6C188.861 30.896 188.722 30.2987 188.445 29.808C188.168 29.3173 187.805 28.9547 187.357 28.72C186.909 28.4747 186.424 28.352 185.901 28.352C185.368 28.352 184.877 28.4747 184.429 28.72C183.992 28.9547 183.64 29.3173 183.373 29.808C183.106 30.2987 182.973 30.896 182.973 31.6C182.973 32.3147 183.101 32.9173 183.357 33.408C183.624 33.8987 183.976 34.2667 184.413 34.512C184.85 34.7467 185.33 34.864 185.853 34.864ZM193.719 28.656C193.975 28.1547 194.338 27.7653 194.807 27.488C195.287 27.2107 195.869 27.072 196.551 27.072V28.576H196.167C194.535 28.576 193.719 29.4613 193.719 31.232V36H192.263V27.232H193.719V28.656ZM198.984 25.808C198.707 25.808 198.472 25.712 198.28 25.52C198.088 25.328 197.992 25.0933 197.992 24.816C197.992 24.5387 198.088 24.304 198.28 24.112C198.472 23.92 198.707 23.824 198.984 23.824C199.251 23.824 199.475 23.92 199.656 24.112C199.848 24.304 199.944 24.5387 199.944 24.816C199.944 25.0933 199.848 25.328 199.656 25.52C199.475 25.712 199.251 25.808 198.984 25.808ZM199.688 27.232V36H198.232V27.232H199.688ZM203.946 28.432V33.6C203.946 34.0267 204.036 34.3307 204.218 34.512C204.399 34.6827 204.714 34.768 205.161 34.768H206.234V36H204.922C204.111 36 203.503 35.8133 203.098 35.44C202.692 35.0667 202.49 34.4533 202.49 33.6V28.432H201.354V27.232H202.49V25.024H203.946V27.232H206.234V28.432H203.946ZM215.998 31.28C215.998 31.5573 215.982 31.8507 215.95 32.16H208.942C208.995 33.024 209.288 33.7013 209.822 34.192C210.366 34.672 211.022 34.912 211.79 34.912C212.419 34.912 212.942 34.768 213.358 34.48C213.784 34.1813 214.083 33.7867 214.254 33.296H215.822C215.587 34.1387 215.118 34.8267 214.414 35.36C213.71 35.8827 212.835 36.144 211.79 36.144C210.958 36.144 210.211 35.9573 209.55 35.584C208.899 35.2107 208.387 34.6827 208.014 34C207.64 33.3067 207.454 32.5067 207.454 31.6C207.454 30.6933 207.635 29.8987 207.998 29.216C208.36 28.5333 208.867 28.0107 209.518 27.648C210.179 27.2747 210.936 27.088 211.79 27.088C212.622 27.088 213.358 27.2693 213.998 27.632C214.638 27.9947 215.128 28.496 215.47 29.136C215.822 29.7653 215.998 30.48 215.998 31.28ZM214.494 30.976C214.494 30.4213 214.371 29.9467 214.126 29.552C213.88 29.1467 213.544 28.8427 213.118 28.64C212.702 28.4267 212.238 28.32 211.726 28.32C210.99 28.32 210.36 28.5547 209.838 29.024C209.326 29.4933 209.032 30.144 208.958 30.976H214.494Z" fill="#23262A"/>
</svg>
