<svg width="161" height="70" viewBox="0 0 161 70" fill="none" xmlns="http://www.w3.org/2000/svg">
<path d="M0 23.3333C0 10.4467 10.4467 0 23.3333 0H114.333C140.107 0 161 20.8934 161 46.6667C161 59.5533 150.553 70 137.667 70H46.6667C20.8934 70 0 49.1066 0 23.3333Z" fill="#22252A"/>
<path d="M56.768 41.112C56.032 41.112 55.3707 40.984 54.784 40.728C54.208 40.4613 53.7547 40.0987 53.424 39.64C53.0933 39.1707 52.9227 38.632 52.912 38.024H54.464C54.5173 38.5467 54.7307 38.9893 55.104 39.352C55.488 39.704 56.0427 39.88 56.768 39.88C57.4613 39.88 58.0053 39.7093 58.4 39.368C58.8053 39.016 59.008 38.568 59.008 38.024C59.008 37.5973 58.8907 37.2507 58.656 36.984C58.4213 36.7173 58.128 36.5147 57.776 36.376C57.424 36.2373 56.9493 36.088 56.352 35.928C55.616 35.736 55.024 35.544 54.576 35.352C54.1387 35.16 53.76 34.8613 53.44 34.456C53.1307 34.04 52.976 33.4853 52.976 32.792C52.976 32.184 53.1307 31.6453 53.44 31.176C53.7493 30.7067 54.1813 30.344 54.736 30.088C55.3013 29.832 55.9467 29.704 56.672 29.704C57.7173 29.704 58.5707 29.9653 59.232 30.488C59.904 31.0107 60.2827 31.704 60.368 32.568H58.768C58.7147 32.1413 58.4907 31.768 58.096 31.448C57.7013 31.1173 57.1787 30.952 56.528 30.952C55.92 30.952 55.424 31.112 55.04 31.432C54.656 31.7413 54.464 32.1787 54.464 32.744C54.464 33.1493 54.576 33.48 54.8 33.736C55.0347 33.992 55.3173 34.1893 55.648 34.328C55.9893 34.456 56.464 34.6053 57.072 34.776C57.808 34.9787 58.4 35.1813 58.848 35.384C59.296 35.576 59.68 35.88 60 36.296C60.32 36.7013 60.48 37.256 60.48 37.96C60.48 38.504 60.336 39.016 60.048 39.496C59.76 39.976 59.3333 40.3653 58.768 40.664C58.2027 40.9627 57.536 41.112 56.768 41.112ZM70.6226 36.28C70.6226 36.5573 70.6066 36.8507 70.5746 37.16H63.5666C63.62 38.024 63.9133 38.7013 64.4466 39.192C64.9906 39.672 65.6466 39.912 66.4146 39.912C67.044 39.912 67.5666 39.768 67.9826 39.48C68.4093 39.1813 68.708 38.7867 68.8786 38.296H70.4466C70.212 39.1387 69.7426 39.8267 69.0386 40.36C68.3346 40.8827 67.46 41.144 66.4146 41.144C65.5826 41.144 64.836 40.9573 64.1746 40.584C63.524 40.2107 63.012 39.6827 62.6386 39C62.2653 38.3067 62.0786 37.5067 62.0786 36.6C62.0786 35.6933 62.26 34.8987 62.6226 34.216C62.9853 33.5333 63.492 33.0107 64.1426 32.648C64.804 32.2747 65.5613 32.088 66.4146 32.088C67.2466 32.088 67.9826 32.2693 68.6226 32.632C69.2626 32.9947 69.7533 33.496 70.0946 34.136C70.4466 34.7653 70.6226 35.48 70.6226 36.28ZM69.1186 35.976C69.1186 35.4213 68.996 34.9467 68.7506 34.552C68.5053 34.1467 68.1693 33.8427 67.7426 33.64C67.3266 33.4267 66.8626 33.32 66.3506 33.32C65.6146 33.32 64.9853 33.5547 64.4626 34.024C63.9506 34.4933 63.6573 35.144 63.5826 35.976H69.1186ZM72.0005 36.584C72.0005 35.688 72.1818 34.904 72.5445 34.232C72.9072 33.5493 73.4032 33.0213 74.0325 32.648C74.6725 32.2747 75.3818 32.088 76.1605 32.088C76.9285 32.088 77.5952 32.2533 78.1605 32.584C78.7258 32.9147 79.1472 33.3307 79.4245 33.832V32.232H80.8965V41H79.4245V39.368C79.1365 39.88 78.7045 40.3067 78.1285 40.648C77.5632 40.9787 76.9018 41.144 76.1445 41.144C75.3658 41.144 74.6618 40.952 74.0325 40.568C73.4032 40.184 72.9072 39.6453 72.5445 38.952C72.1818 38.2587 72.0005 37.4693 72.0005 36.584ZM79.4245 36.6C79.4245 35.9387 79.2912 35.3627 79.0245 34.872C78.7578 34.3813 78.3952 34.008 77.9365 33.752C77.4885 33.4853 76.9925 33.352 76.4485 33.352C75.9045 33.352 75.4085 33.48 74.9605 33.736C74.5125 33.992 74.1552 34.3653 73.8885 34.856C73.6218 35.3467 73.4885 35.9227 73.4885 36.584C73.4885 37.256 73.6218 37.8427 73.8885 38.344C74.1552 38.8347 74.5125 39.2133 74.9605 39.48C75.4085 39.736 75.9045 39.864 76.4485 39.864C76.9925 39.864 77.4885 39.736 77.9365 39.48C78.3952 39.2133 78.7578 38.8347 79.0245 38.344C79.2912 37.8427 79.4245 37.2613 79.4245 36.6ZM84.813 33.656C85.069 33.1547 85.4317 32.7653 85.901 32.488C86.381 32.2107 86.9623 32.072 87.645 32.072V33.576H87.261C85.629 33.576 84.813 34.4613 84.813 36.232V41H83.357V32.232H84.813V33.656ZM88.7818 36.6C88.7818 35.6933 88.9631 34.904 89.3258 34.232C89.6884 33.5493 90.1898 33.0213 90.8298 32.648C91.4804 32.2747 92.2218 32.088 93.0538 32.088C94.1311 32.088 95.0164 32.3493 95.7098 32.872C96.4138 33.3947 96.8778 34.12 97.1018 35.048H95.5338C95.3844 34.5147 95.0911 34.0933 94.6538 33.784C94.2271 33.4747 93.6938 33.32 93.0538 33.32C92.2218 33.32 91.5498 33.608 91.0378 34.184C90.5258 34.7493 90.2698 35.5547 90.2698 36.6C90.2698 37.656 90.5258 38.472 91.0378 39.048C91.5498 39.624 92.2218 39.912 93.0538 39.912C93.6938 39.912 94.2271 39.7627 94.6538 39.464C95.0804 39.1653 95.3738 38.7387 95.5338 38.184H97.1018C96.8671 39.08 96.3978 39.8 95.6938 40.344C94.9898 40.8773 94.1098 41.144 93.0538 41.144C92.2218 41.144 91.4804 40.9573 90.8298 40.584C90.1898 40.2107 89.6884 39.6827 89.3258 39C88.9631 38.3173 88.7818 37.5173 88.7818 36.6ZM103.397 32.072C104.058 32.072 104.655 32.216 105.189 32.504C105.722 32.7813 106.138 33.2027 106.437 33.768C106.746 34.3333 106.901 35.0213 106.901 35.832V41H105.461V36.04C105.461 35.1653 105.242 34.4987 104.805 34.04C104.367 33.5707 103.77 33.336 103.013 33.336C102.245 33.336 101.631 33.576 101.173 34.056C100.725 34.536 100.501 35.2347 100.501 36.152V41H99.0445V29.16H100.501V33.48C100.789 33.032 101.183 32.6853 101.685 32.44C102.197 32.1947 102.767 32.072 103.397 32.072Z" fill="#FAFAFA"/>
</svg>
