<svg width="172" height="59" viewBox="0 0 172 59" fill="none" xmlns="http://www.w3.org/2000/svg">
<path d="M0 19.6667C0 8.80507 8.80507 0 19.6667 0H132.667C154.39 0 172 17.6101 172 39.3333C172 50.1949 163.195 59 152.333 59H39.3333C17.6101 59 0 41.3899 0 19.6667Z" fill="#8BAA36"/>
<path d="M48.768 36.112C48.032 36.112 47.3707 35.984 46.784 35.728C46.208 35.4613 45.7547 35.0987 45.424 34.64C45.0933 34.1707 44.9227 33.632 44.912 33.024H46.464C46.5173 33.5467 46.7307 33.9893 47.104 34.352C47.488 34.704 48.0427 34.88 48.768 34.88C49.4613 34.88 50.0053 34.7093 50.4 34.368C50.8053 34.016 51.008 33.568 51.008 33.024C51.008 32.5973 50.8907 32.2507 50.656 31.984C50.4213 31.7173 50.128 31.5147 49.776 31.376C49.424 31.2373 48.9493 31.088 48.352 30.928C47.616 30.736 47.024 30.544 46.576 30.352C46.1387 30.16 45.76 29.8613 45.44 29.456C45.1307 29.04 44.976 28.4853 44.976 27.792C44.976 27.184 45.1307 26.6453 45.44 26.176C45.7493 25.7067 46.1813 25.344 46.736 25.088C47.3013 24.832 47.9467 24.704 48.672 24.704C49.7173 24.704 50.5707 24.9653 51.232 25.488C51.904 26.0107 52.2827 26.704 52.368 27.568H50.768C50.7147 27.1413 50.4907 26.768 50.096 26.448C49.7013 26.1173 49.1787 25.952 48.528 25.952C47.92 25.952 47.424 26.112 47.04 26.432C46.656 26.7413 46.464 27.1787 46.464 27.744C46.464 28.1493 46.576 28.48 46.8 28.736C47.0347 28.992 47.3173 29.1893 47.648 29.328C47.9893 29.456 48.464 29.6053 49.072 29.776C49.808 29.9787 50.4 30.1813 50.848 30.384C51.296 30.576 51.68 30.88 52 31.296C52.32 31.7013 52.48 32.256 52.48 32.96C52.48 33.504 52.336 34.016 52.048 34.496C51.76 34.976 51.3333 35.3653 50.768 35.664C50.2027 35.9627 49.536 36.112 48.768 36.112ZM62.6226 31.28C62.6226 31.5573 62.6066 31.8507 62.5746 32.16H55.5666C55.62 33.024 55.9133 33.7013 56.4466 34.192C56.9906 34.672 57.6466 34.912 58.4146 34.912C59.044 34.912 59.5666 34.768 59.9826 34.48C60.4093 34.1813 60.708 33.7867 60.8786 33.296H62.4466C62.212 34.1387 61.7426 34.8267 61.0386 35.36C60.3346 35.8827 59.46 36.144 58.4146 36.144C57.5826 36.144 56.836 35.9573 56.1746 35.584C55.524 35.2107 55.012 34.6827 54.6386 34C54.2653 33.3067 54.0786 32.5067 54.0786 31.6C54.0786 30.6933 54.26 29.8987 54.6226 29.216C54.9853 28.5333 55.492 28.0107 56.1426 27.648C56.804 27.2747 57.5613 27.088 58.4146 27.088C59.2466 27.088 59.9826 27.2693 60.6226 27.632C61.2626 27.9947 61.7533 28.496 62.0946 29.136C62.4466 29.7653 62.6226 30.48 62.6226 31.28ZM61.1186 30.976C61.1186 30.4213 60.996 29.9467 60.7506 29.552C60.5053 29.1467 60.1693 28.8427 59.7426 28.64C59.3266 28.4267 58.8626 28.32 58.3506 28.32C57.6146 28.32 56.9853 28.5547 56.4626 29.024C55.9506 29.4933 55.6573 30.144 55.5826 30.976H61.1186ZM72.5445 31.28C72.5445 31.5573 72.5285 31.8507 72.4965 32.16H65.4885C65.5418 33.024 65.8352 33.7013 66.3685 34.192C66.9125 34.672 67.5685 34.912 68.3365 34.912C68.9658 34.912 69.4885 34.768 69.9045 34.48C70.3312 34.1813 70.6298 33.7867 70.8005 33.296H72.3685C72.1338 34.1387 71.6645 34.8267 70.9605 35.36C70.2565 35.8827 69.3818 36.144 68.3365 36.144C67.5045 36.144 66.7578 35.9573 66.0965 35.584C65.4458 35.2107 64.9338 34.6827 64.5605 34C64.1872 33.3067 64.0005 32.5067 64.0005 31.6C64.0005 30.6933 64.1818 29.8987 64.5445 29.216C64.9072 28.5333 65.4138 28.0107 66.0645 27.648C66.7258 27.2747 67.4832 27.088 68.3365 27.088C69.1685 27.088 69.9045 27.2693 70.5445 27.632C71.1845 27.9947 71.6752 28.496 72.0165 29.136C72.3685 29.7653 72.5445 30.48 72.5445 31.28ZM71.0405 30.976C71.0405 30.4213 70.9178 29.9467 70.6725 29.552C70.4272 29.1467 70.0912 28.8427 69.6645 28.64C69.2485 28.4267 68.7845 28.32 68.2725 28.32C67.5365 28.32 66.9072 28.5547 66.3845 29.024C65.8725 29.4933 65.5792 30.144 65.5045 30.976H71.0405ZM80.188 28.656C80.444 28.1547 80.8067 27.7653 81.276 27.488C81.756 27.2107 82.3373 27.072 83.02 27.072V28.576H82.636C81.004 28.576 80.188 29.4613 80.188 31.232V36H78.732V27.232H80.188V28.656ZM92.7008 31.28C92.7008 31.5573 92.6848 31.8507 92.6528 32.16H85.6448C85.6981 33.024 85.9914 33.7013 86.5248 34.192C87.0688 34.672 87.7248 34.912 88.4928 34.912C89.1221 34.912 89.6448 34.768 90.0608 34.48C90.4874 34.1813 90.7861 33.7867 90.9568 33.296H92.5248C92.2901 34.1387 91.8208 34.8267 91.1168 35.36C90.4128 35.8827 89.5381 36.144 88.4928 36.144C87.6608 36.144 86.9141 35.9573 86.2528 35.584C85.6021 35.2107 85.0901 34.6827 84.7168 34C84.3434 33.3067 84.1568 32.5067 84.1568 31.6C84.1568 30.6933 84.3381 29.8987 84.7008 29.216C85.0634 28.5333 85.5701 28.0107 86.2208 27.648C86.8821 27.2747 87.6394 27.088 88.4928 27.088C89.3248 27.088 90.0608 27.2693 90.7008 27.632C91.3408 27.9947 91.8314 28.496 92.1728 29.136C92.5248 29.7653 92.7008 30.48 92.7008 31.28ZM91.1968 30.976C91.1968 30.4213 91.0741 29.9467 90.8288 29.552C90.5834 29.1467 90.2474 28.8427 89.8208 28.64C89.4048 28.4267 88.9408 28.32 88.4288 28.32C87.6928 28.32 87.0634 28.5547 86.5408 29.024C86.0288 29.4933 85.7354 30.144 85.6608 30.976H91.1968ZM94.0786 31.6C94.0786 30.6933 94.26 29.904 94.6226 29.232C94.9853 28.5493 95.4866 28.0213 96.1266 27.648C96.7773 27.2747 97.5186 27.088 98.3506 27.088C99.428 27.088 100.313 27.3493 101.007 27.872C101.711 28.3947 102.175 29.12 102.399 30.048H100.831C100.681 29.5147 100.388 29.0933 99.9506 28.784C99.524 28.4747 98.9906 28.32 98.3506 28.32C97.5186 28.32 96.8466 28.608 96.3346 29.184C95.8226 29.7493 95.5666 30.5547 95.5666 31.6C95.5666 32.656 95.8226 33.472 96.3346 34.048C96.8466 34.624 97.5186 34.912 98.3506 34.912C98.9906 34.912 99.524 34.7627 99.9506 34.464C100.377 34.1653 100.671 33.7387 100.831 33.184H102.399C102.164 34.08 101.695 34.8 100.991 35.344C100.287 35.8773 99.4066 36.144 98.3506 36.144C97.5186 36.144 96.7773 35.9573 96.1266 35.584C95.4866 35.2107 94.9853 34.6827 94.6226 34C94.26 33.3173 94.0786 32.5173 94.0786 31.6ZM105.093 25.808C104.816 25.808 104.581 25.712 104.389 25.52C104.197 25.328 104.101 25.0933 104.101 24.816C104.101 24.5387 104.197 24.304 104.389 24.112C104.581 23.92 104.816 23.824 105.093 23.824C105.36 23.824 105.584 23.92 105.765 24.112C105.957 24.304 106.053 24.5387 106.053 24.816C106.053 25.0933 105.957 25.328 105.765 25.52C105.584 25.712 105.36 25.808 105.093 25.808ZM105.797 27.232V36H104.341V27.232H105.797ZM109.735 28.848C110.023 28.3467 110.45 27.9307 111.015 27.6C111.591 27.2587 112.258 27.088 113.015 27.088C113.794 27.088 114.498 27.2747 115.127 27.648C115.767 28.0213 116.268 28.5493 116.631 29.232C116.994 29.904 117.175 30.688 117.175 31.584C117.175 32.4693 116.994 33.2587 116.631 33.952C116.268 34.6453 115.767 35.184 115.127 35.568C114.498 35.952 113.794 36.144 113.015 36.144C112.268 36.144 111.607 35.9787 111.031 35.648C110.466 35.3067 110.034 34.8853 109.735 34.384V40.16H108.279V27.232H109.735V28.848ZM115.687 31.584C115.687 30.9227 115.554 30.3467 115.287 29.856C115.02 29.3653 114.658 28.992 114.199 28.736C113.751 28.48 113.255 28.352 112.711 28.352C112.178 28.352 111.682 28.4853 111.223 28.752C110.775 29.008 110.412 29.3867 110.135 29.888C109.868 30.3787 109.735 30.9493 109.735 31.6C109.735 32.2613 109.868 32.8427 110.135 33.344C110.412 33.8347 110.775 34.2133 111.223 34.48C111.682 34.736 112.178 34.864 112.711 34.864C113.255 34.864 113.751 34.736 114.199 34.48C114.658 34.2133 115.02 33.8347 115.287 33.344C115.554 32.8427 115.687 32.256 115.687 31.584ZM127.091 31.28C127.091 31.5573 127.075 31.8507 127.043 32.16H120.035C120.089 33.024 120.382 33.7013 120.915 34.192C121.459 34.672 122.115 34.912 122.883 34.912C123.513 34.912 124.035 34.768 124.451 34.48C124.878 34.1813 125.177 33.7867 125.347 33.296H126.915C126.681 34.1387 126.211 34.8267 125.507 35.36C124.803 35.8827 123.929 36.144 122.883 36.144C122.051 36.144 121.305 35.9573 120.643 35.584C119.993 35.2107 119.481 34.6827 119.107 34C118.734 33.3067 118.547 32.5067 118.547 31.6C118.547 30.6933 118.729 29.8987 119.091 29.216C119.454 28.5333 119.961 28.0107 120.611 27.648C121.273 27.2747 122.03 27.088 122.883 27.088C123.715 27.088 124.451 27.2693 125.091 27.632C125.731 27.9947 126.222 28.496 126.563 29.136C126.915 29.7653 127.091 30.48 127.091 31.28ZM125.587 30.976C125.587 30.4213 125.465 29.9467 125.219 29.552C124.974 29.1467 124.638 28.8427 124.211 28.64C123.795 28.4267 123.331 28.32 122.819 28.32C122.083 28.32 121.454 28.5547 120.931 29.024C120.419 29.4933 120.126 30.144 120.051 30.976H125.587Z" fill="#FAFAFA"/>
</svg>
